<?xml version="1.0" encoding="utf-8"?>
<!-- Generator: Adobe Illustrator 16.0.0, SVG Export Plug-In . SVG Version: 6.00 Build 0)  -->
<!DOCTYPE svg PUBLIC "-//W3C//DTD SVG 1.1//EN" "http://www.w3.org/Graphics/SVG/1.1/DTD/svg11.dtd">
<svg version="1.1" id="Layer_1" xmlns="http://www.w3.org/2000/svg" xmlns:xlink="http://www.w3.org/1999/xlink" x="0px" y="0px"
	 width="368px" height="391px" viewBox="0 0 368 391" enable-background="new 0 0 368 391" xml:space="preserve">
<g>
	<path fill-rule="evenodd" clip-rule="evenodd" fill="#FDFDFD" d="M318.388,264.872c-0.009-11.301-9.098-20.503-20.343-20.595
		c-11.345-0.094-20.778,9.273-20.771,20.624c0.007,11.379,9.379,20.644,20.803,20.564
		C309.342,285.388,318.396,276.209,318.388,264.872z"/>
	<path fill-rule="evenodd" clip-rule="evenodd" fill="#020303" d="M228.221,2.75c2.106,1.462,3.357,3.452,4.156,5.905
		c1.464,4.498,3.094,8.945,4.774,13.367c10.159,26.724,40.134,39.219,66.25,27.604c4.666-2.075,9.279-4.275,13.851-6.55
		c2.703-1.346,5.259-1.749,7.572,0.531c2.318,2.283,1.897,4.854,0.653,7.58c-3.563,7.798-8.112,15.197-9.809,23.764
		c-0.339,1.711-0.745,3.427-0.866,5.158c-0.254,3.638-2.138,5.715-5.647,6.422c-4.99-1.437-6.035-3.225-5.468-8.451
		c0.674-6.214,2.619-12.073,5.049-18.387c-16.52,6.946-32.669,7.509-48.779,0.828c-16.063-6.661-26.967-18.542-33.413-34.271
		c-17.851,34.638-45.159,45.988-81.88,34.426c11.58,36.955,0.133,64.158-34.478,81.857c16.142,6.562,27.849,17.608,34.474,33.625
		c6.607,15.975,5.98,32.057-0.908,48.579c16.655-6.873,32.701-7.459,48.696-0.841c16.154,6.685,27.113,18.608,33.771,34.949
		c11.723-30.489,46.168-49.11,81.822-34.579c-11.943-37.049-0.574-64.487,34.275-82.342c-15.163-6.156-26.425-16.4-33.416-31.184
		c-2.251-4.762-1.883-6.381,2.036-9.709c4.065-0.686,6.433,1.053,8.143,4.801c5.774,12.66,15.383,21.263,28.496,25.943
		c4.572,1.632,9.125,3.316,13.71,4.912c2.612,0.909,4.293,2.502,4.356,5.399c0.067,3.079-1.669,4.783-4.423,5.739
		c-4.702,1.633-9.395,3.295-14.076,4.987c-26.888,9.709-39.901,39.952-28.434,66.169c2.044,4.674,4.252,9.281,6.523,13.852
		c1.378,2.772,2.082,5.445-0.316,7.932c-2.56,2.652-5.351,1.75-8.236,0.398c-6.308-2.951-12.398-6.388-19.102-8.467
		c-8.183-2.537-16.436-2.616-24.805-1.127c-2.497,0.445-3.334,1.434-3.325,4.139c0.116,37.226,0.058,74.452,0.111,111.678
		c0.006,4.093-0.464,7.958-2.895,11.381c-0.491,0.691-0.78,1.221-0.304,2.26c5.943,12.939,3.254,20.002-9.646,25.675
		c-77.24,0-154.48,0-231.721,0c-0.133-0.195-0.225-0.501-0.406-0.567c-15.711-5.852-20.837-13.238-20.837-30.076
		c-0.001-37.868,0-75.737,0-113.605c0-52.991-0.015-105.982,0.009-158.973C3.77,65.901,14.728,54.95,32.227,54.913
		c6.249-0.013,12.5-0.083,18.746,0.037c2.6,0.05,4.78-0.082,6.343-2.682c1.033-1.717,3.067-2.973,5.035-2.918
		c8.541,0.235,13.129-3.902,16.463-11.695c3.102-7.254,13.299-6.848,17.434-0.01c0.964,1.593,1.936,3.253,2.485,5.013
		c1.297,4.151,4.105,5.65,8.274,5.865c4.639,0.24,9.301,0.864,11.96,5.591c0.387,0.687,1.158,0.825,1.969,0.811
		c2.448-0.042,4.896-0.015,7.802-0.015c-0.661-1.464-1.087-2.46-1.557-3.435c-1.332-2.757-1.935-5.494,0.58-7.917
		c2.359-2.273,4.904-1.773,7.585-0.44c4.573,2.271,9.182,4.481,13.848,6.556c25.644,11.407,55.311-0.617,65.792-26.696
		c1.902-4.734,3.542-9.579,5.164-14.419c0.823-2.456,2.053-4.487,4.322-5.807C225.721,2.75,226.971,2.75,228.221,2.75z
		 M71.625,339.206c1.453-4.901,2.627-5.747,8.096-5.748c57.23-0.003,114.461-0.002,171.692,0.002c1.249,0,2.585-0.221,3.729,0.139
		c2.768,0.869,3.191-0.147,3.184-2.749c-0.089-30.239-0.052-60.479-0.082-90.719c-0.001-0.762,0.485-1.747-0.587-2.328
		c-14.218,8.27-20.546,21.757-24.666,36.927c4.75,0.147,9.048,1.302,12.888,3.854c2.942,1.956,3.798,5.03,2.257,7.752
		c-1.523,2.693-4.673,3.496-7.811,1.993c-1.121-0.537-2.203-1.189-3.371-1.595c-5.908-2.048-12.388,0.436-15.487,5.873
		c-3.146,5.517-1.833,12.521,3.083,16.602c4.504,3.739,12.004,4.084,15.994-0.399c2.298-2.582,5.826-2.415,8.005-0.258
		c2.158,2.137,2.149,5.53-0.134,8.083c-4.469,4.995-10.208,7.135-16.768,6.728c-10.797-0.672-19.38-7.628-22.222-17.661
		c-2.823-9.971,0.697-20.071,9.435-26.405c1.652-1.198,1.91-2.125,1.194-3.945c-1.868-4.753-3.36-9.657-5.29-14.384
		c-8.733-21.395-31.265-33.652-54.01-29.707c-9.17,1.59-17.013,6.303-25.271,10.054c-2.842,1.292-5.48,1.924-7.891-0.574
		c-2.277-2.36-1.721-4.979-0.456-7.627c2.366-4.949,4.875-9.839,6.997-14.891c10.681-25.425-1.568-54.574-27.187-64.746
		c-4.978-1.977-10.074-3.66-15.137-5.417c-2.817-0.977-4.991-2.565-5.017-5.774c-0.026-3.21,2.103-4.845,4.93-5.83
		c5.178-1.803,10.402-3.498,15.484-5.545c24.209-9.753,36.526-36.78,28.186-61.438c-0.778-2.3-1.668-3.561-4.382-3.353
		c-3.479,0.267-6.999,0.185-10.489,0.02c-2.08-0.098-3.378,0.896-4.931,2.058c-4.66,3.487-6.849,7.577-4.469,13.36
		c0.369,0.896,0.327,1.963,0.451,2.954c1.007,8.012-7.125,14.704-14.04,10.657c-7.281-4.26-13.056-4.333-20.329,0.03
		c-6.452,3.87-14.26-2.016-13.988-9.646c0.093-2.601,0.661-5.193,1.124-7.769c0.792-4.405-4.866-11.531-9.414-11.574
		c-8.121-0.077-16.244-0.023-24.366,0.002c-4.168,0.013-7.82,1.363-10.863,4.284c-3.817,3.666-4.668,8.249-4.665,13.332
		c0.054,83.347,0.039,166.694,0.039,250.042c0,1.223,0,2.445,0,4.211c4.843-2.879,9.573-4.653,14.809-4.646
		c6.623,0.01,13.245-0.004,19.868,0.028c4.643,0.022,6.091,1.241,7.146,5.874c-0.798,3.984-3.304,5.493-7.264,5.411
		c-6.495-0.136-12.996-0.109-19.493-0.012c-6.45,0.098-11.902,3.99-14.145,9.879c-4.021,10.56,3.69,20.826,15.712,20.828
		c73.227,0.014,146.454,0.007,219.681,0.007c0.75,0,1.51,0.065,2.247-0.032c2.86-0.381,4.633-1.955,4.579-4.923
		c-0.053-2.96-1.854-4.504-4.74-4.758c-1.116-0.099-2.248-0.029-3.373-0.029c-70.353,0-140.705,0-211.058-0.001
		c-1.125,0-2.255,0.062-3.373-0.027c-3.262-0.257-5.431-2.464-5.482-5.496c-0.055-3.198,2.174-5.476,5.649-5.708
		c1.12-0.075,2.249-0.022,3.373-0.022c70.228,0,140.456,0,210.683-0.001c1.125,0,2.253,0.056,3.373-0.02
		c3.065-0.205,4.994-1.785,4.938-4.938c-0.056-3.151-2.043-4.65-5.108-4.774c-0.998-0.04-1.999-0.011-2.999-0.011
		c-56.857,0-113.714,0.002-170.571-0.002C74.336,344.708,73.187,343.892,71.625,339.206z M74.933,83.907
		c8.608-6.778,16.724-6.073,25.252,0.076c-4.213-10.328-0.841-17.883,7.811-23.722c-5.081-1.561-9.725-0.781-13.483-3.528
		c-3.758-2.746-4.371-7.554-7.578-11.836c-2.498,10.796-9.364,15.309-20.014,15.192C75.807,66.094,78.36,73.723,74.933,83.907z"/>
	<path fill-rule="evenodd" clip-rule="evenodd" fill="#FCDF76" d="M310.938,101.032c-3.919,3.329-4.287,4.948-2.036,9.709
		c6.991,14.784,18.253,25.028,33.416,31.184c-34.85,17.855-46.219,45.293-34.275,82.342c-35.654-14.531-70.1,4.09-81.822,34.579
		c-6.657-16.341-17.616-28.265-33.771-34.949c-15.995-6.618-32.042-6.032-48.696,0.841c6.888-16.522,7.515-32.604,0.908-48.579
		c-6.625-16.018-18.333-27.064-34.474-33.625c34.61-17.699,46.057-44.902,34.478-81.857c36.721,11.563,64.029,0.212,81.88-34.426
		c6.446,15.729,17.35,27.61,33.413,34.271c16.11,6.681,32.26,6.118,48.779-0.828c-2.43,6.313-4.375,12.173-5.049,18.387
		c-0.567,5.226,0.478,7.014,5.468,8.451C308.7,91.495,310.063,96.233,310.938,101.032z M183.008,92.704
		c-4.591-0.079-7.329,3.608-5.934,7.41c0.984,2.682,2.408,5.198,3.508,7.842c4.331,10.412-0.247,21.69-10.612,26.104
		c-2.518,1.072-5.139,1.898-7.696,2.882c-2.465,0.948-3.84,2.736-3.789,5.423c0.047,2.516,1.377,4.227,3.68,5.128
		c2.667,1.043,5.42,1.877,8.047,3.008c8.701,3.745,13.343,12.668,11.609,21.988c-0.628,3.373-2.251,6.323-3.734,9.334
		c-1.387,2.814-2.439,5.62,0.181,8.265c2.582,2.605,5.385,1.863,8.234,0.356c1.758-0.932,3.587-1.742,5.425-2.508
		c10.522-4.387,22.003,0.348,26.323,10.88c0.943,2.301,1.684,4.687,2.529,7.028c0.943,2.613,2.724,4.16,5.586,4.132
		c2.707-0.027,4.39-1.581,5.327-3.985c0.86-2.204,1.552-4.472,2.418-6.673c4.391-11.158,16.063-15.983,27.045-11.183
		c2.168,0.948,4.289,2.001,6.43,3.011c2.397,1.129,4.651,0.896,6.559-0.952c1.933-1.872,2.1-4.195,1.084-6.565
		c-1.03-2.402-2.319-4.694-3.328-7.104c-4.4-10.52,0.395-21.958,10.988-26.255c2.422-0.983,4.909-1.803,7.352-2.738
		c2.476-0.947,3.872-2.805,3.822-5.428c-0.046-2.453-1.399-4.232-3.723-5.124c-2.209-0.847-4.466-1.569-6.681-2.4
		c-11.339-4.259-16.349-16.126-11.482-27.205c0.801-1.824,1.645-3.633,2.545-5.41c1.346-2.656,1.753-5.282-0.504-7.606
		c-2.268-2.334-4.896-1.986-7.574-0.661c-2.009,0.994-4.021,1.993-6.09,2.848c-10.576,4.372-21.991-0.372-26.287-10.93
		c-0.938-2.305-1.65-4.7-2.536-7.027c-0.975-2.563-2.727-4.147-5.625-4.081c-2.719,0.061-4.38,1.577-5.288,4.012
		c-0.87,2.333-1.589,4.726-2.524,7.031c-2.565,6.329-7.199,10.4-13.814,12.059c-5.048,1.266-9.865,0.394-14.52-1.889
		C187.521,94.525,185.204,92.957,183.008,92.704z"/>
	<path fill-rule="evenodd" clip-rule="evenodd" fill="#020303" d="M318.388,264.872c0.008,11.337-9.046,20.516-20.311,20.594
		c-11.424,0.079-20.796-9.186-20.803-20.564c-0.008-11.351,9.426-20.718,20.771-20.624
		C309.29,244.369,318.379,253.571,318.388,264.872z M297.958,274.201c5.118-0.045,9.188-4.226,9.154-9.4
		c-0.033-5.121-4.256-9.309-9.328-9.25c-5.074,0.057-9.254,4.34-9.198,9.426C288.643,270.108,292.846,274.245,297.958,274.201z"/>
	<path fill-rule="evenodd" clip-rule="evenodd" fill="#5FB5FC" d="M56.895,339.337c-1.055-4.633-2.503-5.852-7.146-5.874
		c-6.623-0.032-13.245-0.019-19.868-0.028c-5.235-0.008-9.966,1.767-14.809,4.646c0-1.766,0-2.988,0-4.211
		c0-83.348,0.016-166.695-0.039-250.042c-0.003-5.083,0.848-9.667,4.665-13.332c3.043-2.921,6.694-4.271,10.863-4.284
		c8.122-0.025,16.245-0.079,24.366-0.002c4.548,0.043,10.205,7.168,9.414,11.574c-0.463,2.576-1.031,5.168-1.124,7.769
		c-0.272,7.63,7.536,13.517,13.988,9.646c7.272-4.363,13.048-4.29,20.329-0.03c6.916,4.047,15.047-2.645,14.04-10.657
		c-0.124-0.991-0.083-2.059-0.451-2.954c-2.38-5.783-0.191-9.873,4.469-13.36c1.553-1.162,2.852-2.156,4.931-2.058
		c3.491,0.165,7.011,0.248,10.489-0.02c2.714-0.208,3.604,1.052,4.382,3.353c8.34,24.657-3.977,51.684-28.186,61.438
		c-5.082,2.047-10.306,3.742-15.484,5.545c-2.828,0.984-4.956,2.62-4.93,5.83c0.026,3.209,2.2,4.797,5.017,5.774
		c5.063,1.757,10.159,3.44,15.137,5.417c25.619,10.172,37.868,39.32,27.187,64.746c-2.122,5.052-4.631,9.941-6.997,14.891
		c-1.265,2.647-1.822,5.267,0.456,7.627c2.411,2.498,5.049,1.866,7.891,0.574c8.257-3.751,16.101-8.464,25.271-10.054
		c22.745-3.945,45.277,8.313,54.01,29.707c1.93,4.727,3.422,9.631,5.29,14.384c0.716,1.82,0.458,2.747-1.194,3.945
		c-8.737,6.334-12.258,16.435-9.435,26.405c2.842,10.033,11.425,16.989,22.222,17.661c6.56,0.407,12.299-1.732,16.768-6.728
		c2.283-2.553,2.292-5.946,0.134-8.083c-2.179-2.157-5.707-2.324-8.005,0.258c-3.99,4.483-11.49,4.139-15.994,0.399
		c-4.916-4.08-6.229-11.085-3.083-16.602c3.1-5.438,9.579-7.921,15.487-5.873c1.168,0.405,2.25,1.058,3.371,1.595
		c3.138,1.503,6.287,0.7,7.811-1.993c1.541-2.722,0.686-5.796-2.257-7.752c-3.84-2.553-8.138-3.707-12.888-3.854
		c4.12-15.17,10.448-28.657,24.666-36.927c1.072,0.581,0.586,1.566,0.587,2.328c0.03,30.239-0.007,60.479,0.082,90.719
		c0.008,2.602-0.416,3.618-3.184,2.749c-1.145-0.359-2.48-0.139-3.729-0.139c-57.23-0.004-114.461-0.005-171.692-0.002
		c-5.468,0.001-6.643,0.847-8.095,5.749C66.716,339.251,61.806,339.294,56.895,339.337z M55.593,219.029
		c-0.207,9.055,7.865,14.439,15.005,10.178c6.45-3.85,11.917-4.634,18.17-0.002c3.391,2.51,7.388,1.975,10.891-0.44
		c3.541-2.44,5.35-6.122,4.094-10.086c-2.433-7.677-0.291-13.147,5.988-17.908c3.161-2.396,3.784-6.345,2.441-10.279
		c-1.382-4.052-4.292-6.885-8.458-6.88c-7.746,0.008-12.245-3.388-14.699-10.664c-1.319-3.914-4.841-5.938-9.141-5.965
		c-4.457-0.027-8.088,2.025-9.401,6.127c-2.39,7.47-7.252,10.051-14.799,10.585c-8.239,0.583-11.662,10.414-6.295,16.729
		c1.853,2.181,3.966,4.167,6.123,6.056c1.504,1.317,1.919,2.654,1.473,4.599C56.316,213.989,55.942,216.969,55.593,219.029z
		 M157.719,275.777c-0.333-6.131,1.878-9.266,5.856-9.631c3.697-0.338,6.563,2.355,7.11,7.023
		c0.871,7.437,1.493,14.902,2.375,22.337c0.52,4.382,3.021,6.535,6.516,6.01c3.378-0.509,5.031-3.068,4.61-7.275
		c-0.758-7.575-1.588-15.143-2.328-22.72c-0.707-7.244-4.36-12.435-11.019-15.223c-6.704-2.806-12.997-1.57-18.515,3.077
		c-1.341,1.13-2.192,1.445-3.813,0.479c-5.052-3.016-10.418-3.115-15.818-0.97c-1.325,0.526-2.246,0.721-3.711-0.055
		c-4.302-2.275-8.743,0.54-8.316,5.335c1.085,12.181,2.365,24.346,3.717,36.5c0.484,4.353,3.046,6.403,6.623,5.837
		c3.297-0.521,4.881-3.132,4.447-7.385c-0.76-7.449-1.563-14.895-2.295-22.346c-0.462-4.696,2.429-8.106,6.701-8.021
		c3.779,0.076,6.139,2.665,6.593,7.197c0.76,7.574,1.507,15.15,2.317,22.72c0.353,3.3,2.253,5.388,5.583,5.433
		c3.119,0.041,5.175-1.801,5.552-4.969c0.188-1.583-0.099-3.234-0.261-4.846C158.979,287.706,158.279,281.129,157.719,275.777z
		 M95.398,327.505c13.441,0.046,24.304-10.621,24.497-24.056c0.192-13.392-10.954-24.647-24.384-24.625
		c-13.347,0.022-24.177,10.902-24.221,24.329C71.246,316.613,81.983,327.458,95.398,327.505z M47.649,312.644
		c8.883-0.3,15.745-3.598,19.944-11.413c1.786-3.322,0.943-6.534-1.917-8.126c-2.878-1.604-5.751-0.635-7.871,2.653
		c-3.205,4.971-8.339,6.791-13.903,4.93c-6.57-2.198-10.303-8.831-8.656-15.38c1.782-7.086,8.057-11.078,15.332-9.755
		c5.176,0.941,8.176-0.522,8.77-4.28c0.544-3.446-1.958-6.011-6.795-6.843c-9.892-1.703-18.105,1.429-24.09,9.355
		c-5.912,7.829-6.698,16.585-2.268,25.378C30.622,307.95,38.142,312.211,47.649,312.644z M188.823,305.711
		c0,4.489-0.093,8.981,0.027,13.469c0.106,3.974,2.159,6.175,5.49,6.243c3.467,0.071,5.693-2.222,5.739-6.367
		c0.1-8.854,0.097-17.711,0.003-26.565c-0.045-4.214-2.17-6.445-5.678-6.411c-3.473,0.034-5.479,2.293-5.567,6.536
		C188.747,296.979,188.818,301.346,188.823,305.711z M194.489,280.391c3.226-0.011,5.589-2.439,5.576-5.731
		c-0.012-3.248-2.453-5.729-5.624-5.714c-3.171,0.014-5.587,2.51-5.577,5.761C188.875,277.998,191.254,280.402,194.489,280.391z"/>
	<path fill-rule="evenodd" clip-rule="evenodd" fill="#EAEAEA" d="M56.895,339.337c4.911-0.043,9.821-0.086,14.731-0.13
		c1.561,4.685,2.71,5.501,7.899,5.501c56.857,0.004,113.714,0.002,170.571,0.002c1,0,2.001-0.029,2.999,0.011
		c3.065,0.124,5.053,1.623,5.108,4.774c0.056,3.152-1.873,4.732-4.938,4.938c-1.12,0.075-2.248,0.02-3.373,0.02
		c-70.228,0.001-140.455,0.001-210.683,0.001c-1.125,0-2.253-0.053-3.373,0.022c-3.475,0.232-5.704,2.51-5.649,5.708
		c0.051,3.032,2.22,5.239,5.482,5.496c1.118,0.089,2.248,0.027,3.373,0.027c70.353,0.001,140.705,0.001,211.058,0.001
		c1.125,0,2.257-0.069,3.373,0.029c2.887,0.254,4.688,1.798,4.74,4.758c0.054,2.968-1.719,4.542-4.579,4.923
		c-0.737,0.098-1.497,0.032-2.247,0.032c-73.227,0-146.454,0.007-219.681-0.007c-12.022-0.002-19.733-10.269-15.712-20.828
		c2.243-5.889,7.695-9.781,14.145-9.879c6.497-0.098,12.998-0.124,19.493,0.012C53.591,344.83,56.097,343.321,56.895,339.337z"/>
	<path fill-rule="evenodd" clip-rule="evenodd" fill="#FC636E" d="M74.933,83.907c3.427-10.184,0.874-17.813-8.012-23.818
		c10.65,0.117,17.517-4.396,20.014-15.192c3.207,4.282,3.82,9.09,7.578,11.836c3.758,2.747,8.402,1.968,13.483,3.528
		c-8.652,5.838-12.024,13.394-7.811,23.722C91.657,77.833,83.542,77.129,74.933,83.907z"/>
	<path fill-rule="evenodd" clip-rule="evenodd" fill="#020303" d="M183.008,92.704c2.196,0.253,4.514,1.822,6.95,3.017
		c4.654,2.283,9.472,3.154,14.52,1.889c6.615-1.659,11.249-5.73,13.814-12.059c0.936-2.306,1.654-4.698,2.524-7.031
		c0.908-2.436,2.569-3.952,5.288-4.012c2.898-0.066,4.65,1.519,5.625,4.081c0.886,2.327,1.599,4.723,2.536,7.027
		c4.296,10.559,15.711,15.302,26.287,10.93c2.069-0.855,4.081-1.854,6.09-2.848c2.678-1.325,5.307-1.673,7.574,0.661
		c2.257,2.325,1.85,4.951,0.504,7.606c-0.9,1.776-1.744,3.585-2.545,5.41c-4.866,11.079,0.144,22.946,11.482,27.205
		c2.215,0.832,4.472,1.553,6.681,2.4c2.323,0.891,3.677,2.671,3.723,5.124c0.05,2.623-1.347,4.48-3.822,5.428
		c-2.442,0.935-4.93,1.755-7.352,2.738c-10.594,4.298-15.389,15.735-10.988,26.255c1.009,2.41,2.298,4.702,3.328,7.104
		c1.016,2.37,0.849,4.693-1.084,6.565c-1.907,1.848-4.161,2.081-6.559,0.952c-2.141-1.009-4.262-2.063-6.43-3.011
		c-10.981-4.8-22.654,0.025-27.045,11.183c-0.866,2.201-1.558,4.469-2.418,6.673c-0.938,2.404-2.62,3.958-5.327,3.985
		c-2.862,0.028-4.643-1.519-5.586-4.132c-0.846-2.342-1.586-4.728-2.529-7.028c-4.32-10.533-15.801-15.268-26.323-10.88
		c-1.838,0.766-3.667,1.577-5.425,2.508c-2.849,1.507-5.652,2.249-8.234-0.356c-2.62-2.645-1.568-5.45-0.181-8.265
		c1.483-3.011,3.106-5.961,3.734-9.334c1.734-9.319-2.909-18.243-11.609-21.988c-2.627-1.131-5.38-1.965-8.047-3.008
		c-2.303-0.901-3.632-2.612-3.68-5.128c-0.051-2.687,1.324-4.475,3.789-5.423c2.557-0.984,5.178-1.811,7.696-2.882
		c10.366-4.414,14.943-15.692,10.612-26.104c-1.1-2.644-2.523-5.16-3.508-7.842C175.679,96.312,178.417,92.625,183.008,92.704z
		 M226.254,189.55c7.737-10.917,18.067-15.701,31.165-14.181c1.997,0.231,2.251-0.247,2.002-2.136
		c-1.591-12.035,2.587-21.819,12.018-29.324c1.752-1.395,1.875-1.871,0.03-3.331c-9.45-7.481-13.62-17.274-12.059-29.308
		c0.237-1.835,0.093-2.415-1.965-2.174c-13.098,1.534-23.431-3.242-31.152-14.125c-0.757,0.959-1.426,1.84-2.129,2.691
		c-6.241,7.555-14.194,11.62-24.063,11.691c-2.227,0.015-5.19-1.065-6.503-0.01c-1.776,1.429,0.286,4.39-0.063,6.711
		c-0.111,0.738-0.077,1.497-0.152,2.24c-0.936,9.164-4.921,16.69-12.296,22.249c-1.86,1.401-1.815,1.951-0.001,3.389
		c9.328,7.394,13.491,17.036,12.02,28.956c-0.204,1.649-0.398,2.8,2.107,2.505C208.146,173.874,218.408,178.566,226.254,189.55z"/>
	<path fill-rule="evenodd" clip-rule="evenodd" fill="#FCDF76" d="M297.958,274.201c-5.112,0.044-9.315-4.093-9.372-9.225
		c-0.056-5.086,4.124-9.369,9.198-9.426c5.072-0.059,9.295,4.129,9.328,9.25C307.146,269.976,303.076,274.156,297.958,274.201z"/>
	<path fill-rule="evenodd" clip-rule="evenodd" fill="#020303" d="M55.593,219.029c0.349-2.061,0.723-5.04,1.392-7.951
		c0.447-1.944,0.032-3.281-1.473-4.599c-2.157-1.889-4.27-3.875-6.123-6.056c-5.366-6.315-1.943-16.146,6.295-16.729
		c7.546-0.534,12.409-3.115,14.799-10.585c1.313-4.103,4.944-6.155,9.401-6.127c4.3,0.027,7.822,2.051,9.141,5.965
		c2.454,7.276,6.954,10.672,14.699,10.664c4.166-0.004,7.075,2.828,8.458,6.88c1.342,3.934,0.72,7.882-2.441,10.279
		c-6.279,4.761-8.421,10.231-5.988,17.908c1.256,3.964-0.553,7.646-4.094,10.086c-3.503,2.415-7.5,2.95-10.891,0.44
		c-6.253-4.632-11.72-3.848-18.17,0.002C63.458,233.469,55.386,228.084,55.593,219.029z M67.171,218.426
		c8.542-6.56,16.781-6.491,25.351-0.03c-3.944-10.288-0.939-17.869,7.69-24.056c-10.898,0.541-17.24-4.524-20.008-14.837
		c-3.204,4.217-3.857,8.886-7.53,11.646c-3.752,2.819-8.579,1.764-13.501,3.792C68.464,200.619,70.582,208.395,67.171,218.426z"/>
	<path fill-rule="evenodd" clip-rule="evenodd" fill="#020303" d="M157.719,275.777c0.56,5.352,1.26,11.929,1.925,18.509
		c0.163,1.611,0.45,3.263,0.261,4.846c-0.377,3.168-2.433,5.01-5.552,4.969c-3.33-0.045-5.23-2.133-5.583-5.433
		c-0.81-7.569-1.557-15.146-2.317-22.72c-0.455-4.532-2.814-7.121-6.593-7.197c-4.271-0.086-7.163,3.324-6.701,8.021
		c0.733,7.451,1.536,14.896,2.295,22.346c0.434,4.253-1.15,6.863-4.447,7.385c-3.577,0.566-6.139-1.484-6.623-5.837
		c-1.352-12.154-2.632-24.319-3.717-36.5c-0.427-4.795,4.014-7.61,8.316-5.335c1.465,0.775,2.386,0.581,3.711,0.055
		c5.399-2.146,10.766-2.046,15.818,0.97c1.621,0.967,2.472,0.651,3.813-0.479c5.518-4.647,11.811-5.883,18.515-3.077
		c6.659,2.788,10.312,7.979,11.019,15.223c0.739,7.577,1.569,15.145,2.328,22.72c0.421,4.207-1.231,6.767-4.61,7.275
		c-3.496,0.525-5.996-1.628-6.516-6.01c-0.883-7.435-1.504-14.9-2.375-22.337c-0.547-4.668-3.413-7.361-7.11-7.023
		C159.598,266.512,157.387,269.646,157.719,275.777z"/>
	<path fill-rule="evenodd" clip-rule="evenodd" fill="#020303" d="M95.398,327.505c-13.416-0.047-24.153-10.892-24.109-24.352
		c0.044-13.427,10.875-24.307,24.221-24.329c13.43-0.022,24.577,11.233,24.384,24.625
		C119.702,316.884,108.839,327.551,95.398,327.505z M95.705,316.252c7.222-0.066,13.039-6.003,12.934-13.199
		c-0.104-7.16-6.144-13.074-13.246-12.974c-7.183,0.103-12.913,6.027-12.851,13.285C82.603,310.636,88.408,316.319,95.705,316.252z"
		/>
	<path fill-rule="evenodd" clip-rule="evenodd" fill="#020303" d="M47.649,312.644c-9.507-0.433-17.028-4.693-21.455-13.48
		c-4.43-8.793-3.644-17.549,2.268-25.378c5.985-7.927,14.198-11.059,24.09-9.355c4.838,0.832,7.339,3.396,6.795,6.843
		c-0.594,3.758-3.593,5.222-8.77,4.28c-7.275-1.323-13.55,2.669-15.332,9.755c-1.647,6.549,2.086,13.182,8.656,15.38
		c5.563,1.861,10.698,0.041,13.903-4.93c2.12-3.288,4.993-4.257,7.871-2.653c2.86,1.592,3.703,4.804,1.917,8.126
		C63.395,309.046,56.532,312.344,47.649,312.644z"/>
	<path fill-rule="evenodd" clip-rule="evenodd" fill="#020303" d="M188.82,305.711c-0.002-4.365-0.073-8.732,0.018-13.096
		c0.089-4.243,2.095-6.502,5.567-6.536c3.508-0.034,5.633,2.197,5.678,6.411c0.094,8.854,0.097,17.711-0.003,26.565
		c-0.046,4.146-2.272,6.438-5.739,6.367c-3.331-0.068-5.384-2.27-5.49-6.243C188.73,314.692,188.823,310.2,188.82,305.711z"/>
	<path fill-rule="evenodd" clip-rule="evenodd" fill="#020303" d="M194.489,280.391c-3.235,0.012-5.614-2.393-5.625-5.685
		c-0.01-3.251,2.406-5.747,5.577-5.761c3.171-0.015,5.612,2.466,5.624,5.714C200.078,277.951,197.715,280.38,194.489,280.391z"/>
	<path fill-rule="evenodd" clip-rule="evenodd" fill="#FC636E" d="M226.254,189.55c-7.846-10.983-18.108-15.676-31.041-14.156
		c-2.506,0.295-2.312-0.856-2.107-2.505c1.472-11.92-2.691-21.563-12.02-28.956c-1.814-1.438-1.858-1.988,0.001-3.389
		c7.375-5.559,11.361-13.085,12.296-22.249c0.075-0.744,0.041-1.502,0.152-2.24c0.349-2.321-1.714-5.282,0.063-6.711
		c1.313-1.055,4.276,0.025,6.503,0.01c9.868-0.071,17.821-4.136,24.063-11.691c0.703-0.851,1.372-1.731,2.129-2.691
		c7.722,10.882,18.055,15.658,31.152,14.125c2.058-0.241,2.202,0.339,1.965,2.174c-1.562,12.034,2.608,21.827,12.059,29.308
		c1.845,1.46,1.722,1.936-0.03,3.331c-9.431,7.505-13.608,17.289-12.018,29.324c0.249,1.889-0.005,2.367-2.002,2.136
		C244.321,173.849,233.991,178.632,226.254,189.55z"/>
	<path fill-rule="evenodd" clip-rule="evenodd" fill="#FC636E" d="M67.171,218.426c3.411-10.031,1.293-17.807-7.998-23.485
		c4.922-2.028,9.749-0.974,13.501-3.792c3.673-2.76,4.326-7.429,7.53-11.646c2.768,10.313,9.11,15.378,20.008,14.837
		c-8.63,6.187-11.634,13.768-7.69,24.056C83.952,211.935,75.713,211.866,67.171,218.426z"/>
	<path fill-rule="evenodd" clip-rule="evenodd" fill="#5FB5FC" d="M95.705,316.252c-7.297,0.067-13.102-5.616-13.164-12.888
		c-0.062-7.258,5.668-13.183,12.851-13.285c7.102-0.101,13.142,5.813,13.246,12.974C108.743,310.249,102.926,316.186,95.705,316.252
		z"/>
</g>
</svg>
